<svg width="216" height="133" viewBox="0 0 216 133" fill="none" xmlns="http://www.w3.org/2000/svg">
<path d="M140.625 0C150.672 0 159.205 1.69545 166.226 5.08706C173.367 8.47867 178.753 13.0213 182.384 18.7144C186.136 24.4074 188.013 30.6455 188.013 37.4288C188.013 42.7584 186.621 47.846 183.837 52.6912C181.053 57.4151 176.696 61.2912 170.765 64.3194C169.773 64.8054 168.733 65.2525 167.647 65.664C168.862 66.0759 170.022 66.536 171.128 67.0449C177.18 69.8308 181.658 73.6463 184.563 78.4913C187.468 83.3365 188.92 88.7877 188.92 94.8442C188.92 101.87 186.984 108.29 183.111 114.104C179.358 119.797 173.851 124.4 166.589 127.912C159.447 131.304 150.793 133 140.625 133C131.305 133 122.833 131.183 115.207 127.549C107.703 123.915 101.711 118.827 97.233 112.286C92.7545 105.745 90.5152 98.2355 90.5152 89.7565H111.394C111.758 94.6017 113.21 98.9019 115.752 102.657C118.294 106.291 121.743 109.198 126.101 111.378C130.458 113.437 135.421 114.467 140.989 114.467C146.92 114.467 151.882 113.559 155.877 111.742C159.992 109.804 163.079 107.26 165.137 104.11C167.194 100.961 168.223 97.5086 168.223 93.7537C168.223 87.4551 165.741 82.7311 160.779 79.5818C155.937 76.3113 148.675 74.6758 138.992 74.6758H128.28V56.5067H138.992C149.159 56.5067 156.422 54.9319 160.779 51.7825C165.136 48.5121 167.315 43.7274 167.315 37.4288C167.315 33.916 166.347 30.7664 164.41 27.9805C162.473 25.0734 159.568 22.7723 155.695 21.0765C151.822 19.3807 146.98 18.5327 141.17 18.5327C135.603 18.5327 130.64 19.5014 126.282 21.4394C121.925 23.3775 118.415 26.2241 115.752 29.9791C113.21 33.7341 111.758 38.1555 111.394 43.2429H90.5152C90.5152 34.6427 92.815 27.1328 97.4145 20.713C102.135 14.172 108.247 9.08447 115.752 5.45058C123.377 1.81674 131.669 1.42332e-05 140.625 0Z" fill="white"/>
<path d="M216 130.146H198.361V112.495H216V130.146Z" fill="white"/>
<path d="M47.5685 0C57.8568 7.71215e-06 66.4508 1.87729 73.3501 5.63229C80.3703 9.26614 85.6353 14.1719 89.1454 20.3495C92.7767 26.4059 94.5926 33.0078 94.5926 40.1544C94.5926 46.0896 93.5028 51.1768 91.3241 55.4162C89.2665 59.6557 86.4826 63.3503 82.9725 66.4997C79.5834 69.649 75.7103 72.4957 71.353 75.0393C66.9955 77.4619 62.5168 79.8847 57.9173 82.3073C53.3178 84.6087 48.8391 87.1523 44.4817 89.9382C40.2454 92.603 36.4328 95.7528 33.0437 99.3866C29.6547 103.02 27.0524 107.381 25.2368 112.468H94.9558V130.093H17.8525V112.495H0.638501V112.468C2.00003 107.408 3.90547 102.927 6.35465 99.0231C9.74375 93.8146 13.6773 89.3326 18.1557 85.5776C22.7552 81.8226 27.5969 78.5522 32.6805 75.7663C37.7642 72.8592 42.7269 70.1939 47.5685 67.7714C52.41 65.3488 56.7676 62.8659 60.6408 60.3222C64.635 57.7785 67.7819 54.9318 70.0816 51.7825C72.5024 48.6332 73.7132 44.878 73.7132 40.5173C73.7132 33.7342 71.4738 28.4046 66.9954 24.5285C62.517 20.5313 56.3439 18.5327 48.4764 18.5327C39.2774 18.5327 32.4988 20.8342 28.1414 25.4371C23.7841 29.9189 21.3029 35.8541 20.6977 43.2429H0C7.96913e-06 34.6427 2.05761 27.1328 6.17296 20.713C10.4094 14.172 16.0983 9.08447 23.2397 5.45058C30.381 1.81678 38.4906 0 47.5685 0Z" fill="white"/>
</svg>
